<svg width="457" height="457" viewBox="0 0 457 457" fill="none" xmlns="http://www.w3.org/2000/svg">
<path d="M457 228.5C457 354.697 354.697 457 228.5 457C102.303 457 0 354.697 0 228.5C0 102.303 102.303 0 228.5 0C354.697 0 457 102.303 457 228.5ZM24.7408 228.5C24.7408 341.033 115.967 432.259 228.5 432.259C341.033 432.259 432.259 341.033 432.259 228.5C432.259 115.967 341.033 24.7408 228.5 24.7408C115.967 24.7408 24.7408 115.967 24.7408 228.5Z" fill="#324F66"/>
<path d="M361.66 398.736C365.869 404.117 373.669 405.092 378.815 400.598C400.016 382.081 417.641 359.78 430.769 334.8C445.818 306.164 454.615 274.659 456.579 242.37C458.542 210.08 453.627 177.742 442.159 147.494C430.691 117.246 412.931 89.7772 390.054 66.9058C367.176 44.0343 339.704 26.2811 309.452 14.8205C279.201 3.35986 246.862 -1.54688 214.573 0.424838C182.284 2.39656 150.781 11.2018 122.149 26.2581C97.1721 39.3926 74.8761 57.023 56.3639 78.2288C51.8709 83.3755 52.848 91.1747 58.2303 95.3827C63.6126 99.5906 71.3595 98.6103 75.8862 93.4932C92.2179 75.0316 111.788 59.6598 133.665 48.1558C159.196 34.7298 187.288 26.8779 216.081 25.1197C244.874 23.3615 273.712 27.7369 300.687 37.9566C327.663 48.1763 352.161 64.0073 372.561 84.4024C392.962 104.797 408.799 129.292 419.025 156.265C429.252 183.238 433.634 212.075 431.883 240.868C430.132 269.662 422.288 297.755 408.868 323.29C397.37 345.17 382.003 364.743 363.545 381.08C358.429 385.608 357.451 393.355 361.66 398.736Z" fill="#30AEDF"/>
<path d="M52.4478 103.13C46.8826 99.1671 39.1277 100.449 35.4716 106.22C20.0264 130.602 9.31951 157.722 3.95741 186.158C-2.16984 218.651 -1.1721 252.086 6.88173 284.156C14.9356 316.226 29.8536 346.166 50.6058 371.908C68.7666 394.436 91.0167 413.28 116.149 427.471C122.098 430.83 129.538 428.296 132.571 422.174C135.603 416.052 133.076 408.663 127.149 405.265C105.215 392.689 85.7807 376.121 69.8673 356.381C51.3621 333.425 38.0593 306.727 30.8775 278.13C23.6957 249.532 22.8059 219.717 28.2698 190.742C32.9683 165.826 42.269 142.041 55.6586 120.594C59.2767 114.799 58.0129 107.093 52.4478 103.13Z" fill="#304CDF"/>
<path d="M144.625 427.691C141.973 433.987 144.919 441.275 151.35 443.582C183.428 455.088 217.728 459.292 251.735 455.816C285.742 452.34 318.482 441.284 347.57 423.525C353.401 419.965 354.811 412.232 350.941 406.602C347.07 400.972 339.386 399.581 333.532 403.103C307.882 418.533 279.099 428.149 249.219 431.203C219.34 434.257 189.207 430.663 160.965 420.742C154.519 418.477 147.276 421.394 144.625 427.691Z" fill="#A730DF"/>
<path d="M276.479 227V215.56H277.871V225.864H283.103V227H276.479ZM284.978 227V218.632H286.306V227H284.978ZM285.618 216.888C285.138 216.888 284.738 216.488 284.738 216.008C284.738 215.528 285.138 215.128 285.618 215.128C286.098 215.128 286.498 215.528 286.498 216.008C286.498 216.488 286.098 216.888 285.618 216.888ZM295.04 229.912V225.56C294.56 226.376 293.392 227.144 292.176 227.144C289.984 227.144 288.4 225.592 288.4 222.984V222.856C288.4 220.296 290 218.488 292.304 218.488C293.696 218.488 294.56 219.16 295.04 219.976V218.632H296.368V229.912H295.04ZM292.32 226.04C293.872 226.04 295.088 225.016 295.088 222.872V222.744C295.088 220.6 294.064 219.592 292.432 219.592C290.768 219.592 289.776 220.76 289.776 222.792V222.92C289.776 225.032 290.912 226.04 292.32 226.04ZM301.887 227.144C300.223 227.144 298.975 226.232 298.975 223.928V218.632H300.303V223.864C300.303 225.336 300.927 225.992 302.239 225.992C303.423 225.992 304.543 225.208 304.543 223.704V218.632H305.871V227H304.543V225.672C304.159 226.456 303.231 227.144 301.887 227.144ZM308.587 227V218.632H309.915V227H308.587ZM309.227 216.888C308.747 216.888 308.347 216.488 308.347 216.008C308.347 215.528 308.747 215.128 309.227 215.128C309.707 215.128 310.107 215.528 310.107 216.008C310.107 216.488 309.707 216.888 309.227 216.888ZM315.785 227.144C313.593 227.144 312.009 225.592 312.009 222.984V222.856C312.009 220.296 313.609 218.488 315.913 218.488C317.305 218.488 318.169 219.16 318.649 219.976V214.632H319.977V227H318.649V225.56C318.169 226.376 317.001 227.144 315.785 227.144ZM315.929 226.04C317.481 226.04 318.697 225.016 318.697 222.872V222.744C318.697 220.6 317.673 219.592 316.041 219.592C314.377 219.592 313.385 220.76 313.385 222.792V222.92C313.385 225.032 314.521 226.04 315.929 226.04ZM322.696 227V218.632H324.024V227H322.696ZM323.336 216.888C322.856 216.888 322.456 216.488 322.456 216.008C322.456 215.528 322.856 215.128 323.336 215.128C323.816 215.128 324.216 215.528 324.216 216.008C324.216 216.488 323.816 216.888 323.336 216.888ZM329.286 227.112C327.766 227.112 327.03 226.216 327.03 224.904V219.752H325.83V218.632H327.03V216.728H328.358V218.632H330.31V219.752H328.358V224.776C328.358 225.592 328.726 225.992 329.398 225.992C329.814 225.992 330.134 225.928 330.422 225.816V226.936C330.15 227.032 329.83 227.112 329.286 227.112ZM333.182 229.912L334.766 226.136L331.486 218.632H332.91L335.47 224.632L337.79 218.632H339.15L334.526 229.912H333.182ZM348.653 227.144C346.781 227.144 344.701 226.024 344.701 223.752C344.701 222.216 345.645 221.224 346.861 220.792C345.773 220.376 345.133 219.512 345.133 218.392C345.133 216.536 346.893 215.416 348.653 215.416C350.429 215.416 352.157 216.568 352.157 218.36C352.157 219.512 351.453 220.312 350.397 220.776C351.725 221.256 352.589 222.248 352.589 223.72C352.589 226.008 350.589 227.144 348.653 227.144ZM348.653 226.008C350.061 226.008 351.165 225.192 351.165 223.672C351.165 222.168 350.045 221.4 348.685 221.4C347.325 221.4 346.125 222.184 346.125 223.704C346.125 225.208 347.325 226.008 348.653 226.008ZM348.701 220.296C349.917 220.296 350.749 219.592 350.749 218.376C350.749 217.272 349.837 216.504 348.653 216.504C347.469 216.504 346.541 217.224 346.541 218.408C346.541 219.608 347.533 220.296 348.701 220.296ZM358.004 227.144C355.54 227.144 354.356 225.784 354.196 223.912H355.524C355.748 225.16 356.244 226.024 357.988 226.024C359.54 226.024 360.5 224.984 360.5 223.256C360.5 221.64 359.556 220.584 358.1 220.584C356.772 220.584 356.004 221 355.396 221.688H354.884V215.56H361.316V216.76H356.036V220.248C356.5 219.816 357.284 219.464 358.372 219.464C360.42 219.464 361.924 220.92 361.924 223.256C361.924 225.672 360.18 227.144 358.004 227.144ZM365.582 219.832C366.446 219.832 366.99 219.24 366.99 218.168C366.99 217.144 366.446 216.504 365.582 216.504C364.734 216.504 364.174 217.096 364.174 218.184C364.174 219.272 364.734 219.832 365.582 219.832ZM365.582 220.872C364.222 220.872 362.958 219.752 362.958 218.2C362.958 216.616 364.19 215.464 365.582 215.464C367.006 215.464 368.206 216.616 368.206 218.168C368.206 219.752 366.958 220.872 365.582 220.872ZM364.574 227L371.566 215.56H372.782L365.79 227H364.574ZM371.79 226.088C372.654 226.088 373.198 225.496 373.198 224.424C373.198 223.4 372.654 222.76 371.79 222.76C370.942 222.76 370.382 223.352 370.382 224.44C370.382 225.528 370.942 226.088 371.79 226.088ZM371.79 227.128C370.43 227.128 369.166 226.008 369.166 224.456C369.166 222.872 370.398 221.72 371.79 221.72C373.214 221.72 374.414 222.872 374.414 224.424C374.414 226.008 373.166 227.128 371.79 227.128Z" fill="white"/>
<path d="M420.005 221.5H380" stroke="#30AEDF" stroke-opacity="0.31"/>
<circle cx="418.5" cy="221.5" r="4.5" fill="#30AEDF"/>
<path d="M44.9946 221.5H85" stroke="#304CDF" stroke-opacity="0.31"/>
<circle cx="4.5" cy="4.5" r="4.5" transform="matrix(-1 0 0 1 51 217)" fill="#304CDF"/>
<path d="M93.8779 227V216.696H90.5499V215.56H98.5979V216.696H95.2699V227H93.8779ZM102.62 227.144C100.252 227.144 98.5716 225.48 98.5716 222.904V222.776C98.5716 220.248 100.188 218.488 102.492 218.488C104.428 218.488 106.252 219.656 106.252 222.648V223.08H99.9476C100.012 224.984 100.924 226.04 102.636 226.04C103.932 226.04 104.684 225.56 104.86 224.584H106.188C105.9 226.264 104.508 227.144 102.62 227.144ZM99.9956 222.008H104.892C104.764 220.28 103.868 219.592 102.492 219.592C101.132 219.592 100.22 220.52 99.9956 222.008ZM110.463 227.144C108.911 227.144 107.679 226.392 107.679 224.68C107.679 222.744 109.727 222.088 111.871 222.088H113.071V221.48C113.071 220.152 112.559 219.592 111.279 219.592C110.127 219.592 109.487 220.072 109.359 221.096H108.031C108.207 219.192 109.727 218.488 111.343 218.488C112.943 218.488 114.399 219.144 114.399 221.48V227H113.071V225.944C112.447 226.728 111.695 227.144 110.463 227.144ZM110.591 226.088C111.999 226.088 113.071 225.368 113.071 224.072V223.032H111.919C110.239 223.032 109.007 223.448 109.007 224.68C109.007 225.544 109.423 226.088 110.591 226.088ZM117.008 227V218.632H118.336V219.912C118.72 219.128 119.632 218.488 120.832 218.488C121.904 218.488 122.848 218.936 123.28 220.056C123.856 218.968 125.104 218.488 126.144 218.488C127.648 218.488 128.96 219.384 128.96 221.816V227H127.632V221.72C127.632 220.248 127.008 219.64 125.856 219.64C124.768 219.64 123.648 220.376 123.648 221.88V227H122.32V221.72C122.32 220.248 121.696 219.64 120.544 219.64C119.456 219.64 118.336 220.376 118.336 221.88V227H117.008ZM138.957 227.144C136.493 227.144 135.309 225.784 135.149 223.912H136.477C136.701 225.16 137.197 226.024 138.941 226.024C140.493 226.024 141.453 224.984 141.453 223.256C141.453 221.64 140.509 220.584 139.053 220.584C137.725 220.584 136.957 221 136.349 221.688H135.837V215.56H142.269V216.76H136.989V220.248C137.453 219.816 138.237 219.464 139.325 219.464C141.373 219.464 142.877 220.92 142.877 223.256C142.877 225.672 141.133 227.144 138.957 227.144ZM146.535 219.832C147.399 219.832 147.943 219.24 147.943 218.168C147.943 217.144 147.399 216.504 146.535 216.504C145.687 216.504 145.127 217.096 145.127 218.184C145.127 219.272 145.687 219.832 146.535 219.832ZM146.535 220.872C145.175 220.872 143.911 219.752 143.911 218.2C143.911 216.616 145.143 215.464 146.535 215.464C147.959 215.464 149.159 216.616 149.159 218.168C149.159 219.752 147.911 220.872 146.535 220.872ZM145.527 227L152.519 215.56H153.735L146.743 227H145.527ZM152.743 226.088C153.607 226.088 154.151 225.496 154.151 224.424C154.151 223.4 153.607 222.76 152.743 222.76C151.895 222.76 151.335 223.352 151.335 224.44C151.335 225.528 151.895 226.088 152.743 226.088ZM152.743 227.128C151.383 227.128 150.119 226.008 150.119 224.456C150.119 222.872 151.351 221.72 152.743 221.72C154.167 221.72 155.367 222.872 155.367 224.424C155.367 226.008 154.119 227.128 152.743 227.128Z" fill="white"/>
<path d="M191.792 369V357.56H193.728L197.264 366.472L200.688 357.56H202.608V369H201.216V359.368L197.424 369H196.992L193.072 359.368V369H191.792ZM207.495 369.144C205.943 369.144 204.711 368.392 204.711 366.68C204.711 364.744 206.759 364.088 208.903 364.088H210.103V363.48C210.103 362.152 209.591 361.592 208.311 361.592C207.159 361.592 206.519 362.072 206.391 363.096H205.063C205.239 361.192 206.759 360.488 208.375 360.488C209.975 360.488 211.431 361.144 211.431 363.48V369H210.103V367.944C209.479 368.728 208.727 369.144 207.495 369.144ZM207.623 368.088C209.031 368.088 210.103 367.368 210.103 366.072V365.032H208.951C207.271 365.032 206.039 365.448 206.039 366.68C206.039 367.544 206.455 368.088 207.623 368.088ZM214.039 369V360.632H215.367V362.136C215.895 361.192 216.615 360.536 218.119 360.488V361.736C216.439 361.816 215.367 362.344 215.367 364.408V369H214.039ZM220.055 369V356.632H221.383V364.488L224.855 360.632H226.407L222.823 364.52L226.711 369H225.095L221.383 364.664V369H220.055ZM231.416 369.144C229.048 369.144 227.368 367.48 227.368 364.904V364.776C227.368 362.248 228.984 360.488 231.288 360.488C233.224 360.488 235.048 361.656 235.048 364.648V365.08H228.744C228.808 366.984 229.72 368.04 231.432 368.04C232.728 368.04 233.48 367.56 233.656 366.584H234.984C234.696 368.264 233.304 369.144 231.416 369.144ZM228.792 364.008H233.688C233.56 362.28 232.664 361.592 231.288 361.592C229.928 361.592 229.016 362.52 228.792 364.008ZM239.63 369.112C238.11 369.112 237.374 368.216 237.374 366.904V361.752H236.174V360.632H237.374V358.728H238.702V360.632H240.654V361.752H238.702V366.776C238.702 367.592 239.07 367.992 239.742 367.992C240.158 367.992 240.478 367.928 240.766 367.816V368.936C240.494 369.032 240.174 369.112 239.63 369.112ZM242.806 369V360.632H244.134V369H242.806ZM243.446 358.888C242.966 358.888 242.566 358.488 242.566 358.008C242.566 357.528 242.966 357.128 243.446 357.128C243.926 357.128 244.326 357.528 244.326 358.008C244.326 358.488 243.926 358.888 243.446 358.888ZM246.852 369V360.632H248.18V361.96C248.564 361.176 249.492 360.488 250.868 360.488C252.596 360.488 253.812 361.432 253.812 363.864V369H252.484V363.768C252.484 362.296 251.86 361.64 250.516 361.64C249.284 361.64 248.18 362.424 248.18 363.928V369H246.852ZM259.758 372.056C257.278 372.056 256.19 370.888 255.966 369.48H257.326C257.518 370.44 258.318 370.936 259.742 370.936C261.39 370.936 262.43 370.152 262.43 368.36V367.144C261.95 367.96 260.814 368.728 259.598 368.728C257.406 368.728 255.79 367.064 255.79 364.76V364.648C255.79 362.376 257.39 360.488 259.694 360.488C261.086 360.488 261.95 361.16 262.43 361.976V360.632H263.758V368.44C263.742 370.872 262.094 372.056 259.758 372.056ZM259.742 367.624C261.294 367.624 262.478 366.536 262.478 364.664V364.552C262.478 362.68 261.454 361.592 259.822 361.592C258.158 361.592 257.166 362.824 257.166 364.584V364.712C257.166 366.536 258.334 367.624 259.742 367.624ZM273.976 369.128C271.864 369.128 270.6 368.024 270.296 366.184H271.64C271.896 367.304 272.536 367.992 274.008 367.992C275.832 367.992 276.904 366.488 276.936 363.448C276.392 364.376 275.288 364.968 273.976 364.968C271.752 364.968 270.216 363.384 270.216 361.224C270.216 358.936 271.752 357.4 274.168 357.4C276.872 357.4 278.28 359.224 278.28 362.52V363.24C278.28 367.032 276.712 369.128 273.976 369.128ZM274.184 363.88C275.72 363.88 276.808 362.888 276.808 361.4C276.808 359.528 275.704 358.488 274.168 358.488C272.664 358.488 271.64 359.544 271.64 361.16C271.64 362.808 272.632 363.88 274.184 363.88ZM282.27 361.832C283.134 361.832 283.678 361.24 283.678 360.168C283.678 359.144 283.134 358.504 282.27 358.504C281.422 358.504 280.862 359.096 280.862 360.184C280.862 361.272 281.422 361.832 282.27 361.832ZM282.27 362.872C280.91 362.872 279.646 361.752 279.646 360.2C279.646 358.616 280.878 357.464 282.27 357.464C283.694 357.464 284.894 358.616 284.894 360.168C284.894 361.752 283.646 362.872 282.27 362.872ZM281.262 369L288.254 357.56H289.47L282.478 369H281.262ZM288.478 368.088C289.342 368.088 289.886 367.496 289.886 366.424C289.886 365.4 289.342 364.76 288.478 364.76C287.63 364.76 287.07 365.352 287.07 366.44C287.07 367.528 287.63 368.088 288.478 368.088ZM288.478 369.128C287.118 369.128 285.854 368.008 285.854 366.456C285.854 364.872 287.086 363.72 288.478 363.72C289.902 363.72 291.102 364.872 291.102 366.424C291.102 368.008 289.854 369.128 288.478 369.128Z" fill="white"/>
<path d="M241.5 421.005V381" stroke="#A730DF" stroke-opacity="0.31"/>
<circle cx="241.5" cy="419.5" r="4.5" transform="rotate(90 241.5 419.5)" fill="#A730DF"/>
</svg>
